<svg width="182" height="40" viewBox="0 0 182 40" fill="none" xmlns="http://www.w3.org/2000/svg">
<g clip-path="url(#clip0_3842_38681)">
<path d="M181.818 26.3384H174.954V33.1691H181.818V26.3384Z" fill="#2B2C30"/>
<path d="M20.4082 25.2308V0.0615234H28.6333V24.1846C28.6333 25.9077 29.0044 26.2769 30.736 26.2769H31.4162L32.4057 32.9231C31.7873 32.9846 29.2517 33.1692 27.7057 33.1692C23.1911 33.2308 20.4082 31.6923 20.4082 25.2308Z" fill="#2B2C30"/>
<path d="M83.5498 9.84619L89.9815 9.35388L90.5999 11.2616C91.8986 10.0308 94.1249 8.86157 98.9487 8.86157C107.297 8.86157 109.215 14.7077 109.215 21.2308C109.215 27.7539 107.112 33.5385 98.4539 33.5385C94.6197 33.5385 92.8262 32.677 91.7749 31.6923V40H83.5498V9.84619ZM100.866 21.5385C100.866 18.7693 100.371 16.3077 96.7842 16.3077C92.9499 16.3077 91.8368 18.277 91.8368 21.5385C91.8368 24.8 92.6407 26.5846 96.7842 26.5846C100.247 26.5846 100.866 24.3077 100.866 21.5385Z" fill="#2B2C30"/>
<path d="M138.652 9.84613L145.084 9.35382L145.887 11.8154C146.939 10.4 149.784 9.23074 153.247 9.10767V16.9846C147.743 17.0461 146.939 18.6461 146.939 21.9077V33.1692H138.714V9.84613H138.652Z" fill="#2B2C30"/>
<path d="M155.535 9.1077H159.802L161.163 4.3077L167.532 2.95386V9.16924H172.727V17.0462H167.532V23.8769C167.532 25.4769 167.78 26.3385 170.377 26.3385H172.727V33.1692C171.49 33.2308 170.13 33.2923 168.584 33.2923C161.657 33.2923 159.307 31.0769 159.307 25.1077V17.0462H155.535V9.1077Z" fill="#2B2C30"/>
<path d="M0 9.41539H4.51453V8.98462C4.51453 3.01539 6.74088 0 14.4712 0C16.5121 0 16.8831 0.0615385 17.8726 0.123077V6.76923H15.5844C13.2344 6.76923 12.7396 7.32308 12.7396 8.86154V9.35385H17.9344V16.3077H12.7396V33.1077H4.51453V16.3692H0V9.41539Z" fill="#2B2C30"/>
<path d="M50.4021 26.0923C49.0415 26.8923 48.3613 27.077 45.6402 27.077C42.4244 27.077 41.1875 25.9077 40.7546 24H56.5864C56.8956 15.6308 56.1535 8.86157 45.6402 8.86157C35.0032 8.86157 32.7769 14.6462 32.7769 21.1077C32.7769 27.7539 35.0032 33.6 45.6402 33.6C49.8455 33.6 52.4429 32.8 55.2258 31.0154L50.4021 26.0923ZM45.331 15.6308C48.7323 15.6308 48.9797 17.2308 49.1034 19.2H40.6309C40.9401 16.8616 42.0533 15.6308 45.331 15.6308Z" fill="#2B2C30"/>
<path d="M72.9127 33.1693L68.8929 27.4462L64.8113 33.1693H55.5967L64.2547 20.9231L56.4006 9.90773L65.7389 9.84619L68.8929 14.4L72.1087 9.84619L81.5089 9.90773L73.5311 20.8616L82.1891 33.1693H72.9127Z" fill="#2B2C30"/>
<path d="M110.946 21.2308C110.946 13.3539 114.595 8.86157 123.871 8.86157C133.21 8.86157 136.797 13.3539 136.797 21.2308C136.797 29.1077 133.21 33.6 123.871 33.6C114.533 33.6 110.946 29.1077 110.946 21.2308ZM128.51 21.477C128.51 18.4616 127.768 16.3077 123.871 16.3077C119.975 16.3077 119.233 18.4616 119.233 21.477C119.233 24.4308 119.975 26.6462 123.871 26.6462C127.768 26.5846 128.51 24.4308 128.51 21.477Z" fill="#2B2C30"/>
</g>
<defs>
<clipPath id="clip0_3842_38681">
<rect width="182" height="40" fill="white"/>
</clipPath>
</defs>
</svg>
