<svg width="143" height="419" viewBox="0 0 143 419" fill="none" xmlns="http://www.w3.org/2000/svg">
<path d="M56.5759 393.68L39.5 199.5C39.5 199.5 48.5 198 55 190C61.5 182 66.5 171 66.5 171L94.5 169C94.5 169 99 178 104.5 184.5C110 191 121.5 197.5 121.5 197.5L124.273 386.795L112.225 388.516C112.225 389.855 112.569 393.68 113.946 398.269C115.323 402.859 120.64 408.596 123.126 410.891H111.078L103.62 392.532H94.4404L87.5559 243.369H86.4085L83.54 393.106L76.0818 400.564L70.9185 413.186H53.1337C54.0899 411.847 56.5759 408.252 58.8707 404.58C61.1655 400.908 62.1217 396.166 62.313 394.253L56.5759 393.68Z" fill="#F7E1D2"/>
<path d="M25 60C25.4 66 21.1667 73.8333 19 77L28.5 79L36 71.5C36.6667 69.8333 38.2 65.9 39 63.5C39.8 61.1 39.6667 59.5 39.5 59C38.3333 57.8333 36.7 56.1 39.5 58.5C42.3 60.9 45.3333 60.5 46.5 60C46.3333 59.6667 45.2 58.3 42 55.5C38.8 52.7 38.3333 48.6667 38.5 47H33L34 44L37.5 40.5C39.1 38.9 40.5 34.5 41 32.5C36 36.5 25.9 44.7 25.5 45.5C25 46.5 24.5 52.5 25 60Z" fill="#E0B0A2"/>
<path d="M128.275 238.5C127.475 237.3 128.608 224.333 129.275 218L140.775 217C141.775 221.5 136.775 239.5 136.775 244C136.775 247.6 132.775 251.5 130.775 253V250L128.275 251L129.775 242.5C130.082 241.066 130.578 238.828 130.915 237.5C130.293 238.538 129.012 239.606 128.275 238.5Z" fill="#E0B0A2"/>
<path d="M59.5 402.5C60.3 400.5 62.1667 395.667 63 393.5L71 393V395L62.5 411L54 411.5C55.5 409.333 58.7 404.5 59.5 402.5Z" fill="#E0B0A2"/>
<path d="M112 388L103 389V395L108 408L122 411C120.667 408.667 117.4 403.2 115 400C112.6 396.8 112 390.667 112 388Z" fill="#E0B0A2"/>
<path d="M60 21C65.5 21 75 13 77 8C82.5 14.5 84 20 92.5 20C96.7709 20 98.504 19.737 99.0372 19.4588L99 19C99.248 19.124 99.353 19.2941 99.0372 19.4588L100.5 37.5L97.5 49C96.1667 51.3333 92.4 56.4 88 58C83.6 59.6 86.1667 59 88 58.5C87 59.5 86.3 62.8 91.5 68C90.3333 71.3333 86.1 78 78.5 78C70.9 78 65.3333 74.6667 63.5 73C65.1667 72.5 69 70.4 71 66C73 61.6 73.5 59.1667 73.5 58.5C69.3333 57.3333 60.8 52.7 60 43.5C59.2 34.3 59.6667 24.6667 60 21Z" fill="#E0B0A2"/>
<path d="M95.7389 416.795L94.1511 389.918L103.354 388.999C103.968 395.432 107.47 401.131 110.231 405.42C112.44 408.851 118.524 409.545 121.898 410.055L125.58 412.812L127.42 414.344L104.719 415.876L101.948 404.195L101.567 415.876L95.7389 416.795Z" fill="#2B2C30"/>
<path d="M73.5509 416.564L39.6406 417.915C41.8971 417.61 47.0255 416.695 49.4871 415.475C51.9487 414.254 53.5897 412.525 54.1026 411.813C61.7951 410.593 69.7322 400.459 69.7322 393.441H83.3973L82.7819 416.564H77.8587L74.7817 402.116L73.5509 416.564Z" fill="#2B2C30"/>
<path d="M76.5372 77.6876C69.1208 77.6876 65.0418 74.3502 63.9293 72.6816L60.9627 75.4627L60.0357 171.134L98.0447 169.095L101.011 108.466L91.3699 70.0858C89.5158 72.6197 83.9535 77.6876 76.5372 77.6876Z" fill="#FFFCFA"/>
<path d="M84.5098 117.947C84.5098 92.4755 86.666 81.4276 91.9026 68.2316C96.2151 70.9935 105.764 75.2899 115.621 76.5175C125.478 77.745 130.407 85.4171 133.179 91.2479C135.397 95.9126 137.8 117.129 138.724 127.153L142.728 217.685L122.09 219.526V197.737C123.117 197.635 124.37 197.492 121.166 197.737C117.162 198.044 102.376 183.007 96.8312 172.879C91.2866 162.752 84.5098 143.418 84.5098 117.947Z" fill="#BFC1B9"/>
<path d="M46.8811 75.5742C48.7212 74.9596 58.2288 74.9596 64.0561 73.4231L65.5896 80.491C71.7235 87.5588 72.6436 124.742 72.6436 140.107C72.6436 155.472 62.5226 182.822 53.9351 192.04C45.3476 201.259 26.9458 207.098 25.1056 187.738C23.6335 172.25 35.1244 141.336 41.0538 127.815C34.511 138.263 18.849 158.361 8.54398 155.165C-4.33727 151.17 3.02345 122.898 4.55693 113.065C5.78371 105.198 15.2913 85.4078 19.8918 76.4961L38.2936 81.7202C39.2136 77.418 45.0409 76.1888 46.8811 75.5742Z" fill="#BFC1B9"/>
<path d="M95.0782 44.3137L95.6344 27.9977H100.64V28.7393C105.09 28.7393 107.871 33.9308 107.871 37.2682C107.871 40.6055 104.163 42.8305 100.64 42.8305V44.3137H95.0782Z" fill="#EE4B4A"/>
<path d="M59.4795 45.6116L59.8503 28.7393L53.5464 28.3685L53.361 29.8518C48.1695 29.6664 46.8716 35.2287 46.8716 37.2682C46.8716 39.3077 47.9841 44.87 54.1026 44.87V46.3533L59.4795 45.6116Z" fill="#EE4B4A"/>
<path d="M74.2147 58.8399C74.841 59.5939 74.7554 60.4781 74.468 61.2767C72.2334 67.473 68.6333 72.3328 61.8987 74.1663C58.1344 75.191 54.3667 75.9176 50.4313 75.6434C47.9058 75.4686 45.4556 75.9279 43.0978 76.9629C41.2088 77.7888 40.2336 79.2591 39.5183 81.192C40.4115 81.5553 41.226 81.8843 42.2149 82.2853C37.4891 97.3443 32.7871 112.325 28.0407 127.445C27.3289 127.353 26.7472 127.277 25.9361 127.171C27.3666 121.996 29.17 117.15 30.6997 112.222C32.2191 107.321 33.8377 102.451 35.4119 97.5671C37.0031 92.632 38.591 87.6968 40.2267 82.6246C39.7168 82.4224 39.2651 82.2065 38.7929 82.0625C35.4735 81.0378 32.1438 80.0473 28.8278 79.0089C27.0894 78.464 25.3886 77.7991 23.6433 77.2885C22.4662 76.9457 21.2342 76.7778 19.9064 76.5071C18.6779 78.8136 17.4802 80.9384 16.3954 83.1215C10.7627 94.4484 6.30713 106.204 3.60711 118.593C1.99532 125.985 1.10558 133.443 1.72497 141.02C1.96452 143.933 2.62498 146.764 3.84324 149.441C4.0075 149.804 4.21966 150.144 4.43183 150.483C6.80675 154.328 9.98586 155.48 14.2361 153.996C17.2441 152.947 19.7867 151.117 22.1992 149.088C26.5966 145.383 30.1898 140.955 33.4989 136.298C38.1016 129.817 41.9617 122.901 45.2537 115.663C45.8115 114.432 45.8766 114.395 47.4404 114.868C47.3001 115.275 47.2077 115.704 47.0093 116.081C44.9731 119.974 42.9165 123.854 40.8837 127.747C40.6545 128.189 40.5244 128.682 40.3465 129.152C40.3362 129.142 40.326 129.131 40.3157 129.121C40.7161 129.039 41.1165 128.96 41.7495 128.833C38.6936 132.833 36.8868 137.12 35.3366 141.517C31.8666 151.37 29.0742 161.422 26.843 171.622C25.8437 176.194 25.2791 180.841 25.3202 185.543C25.3475 188.569 26.0046 191.431 27.3631 194.121C28.4514 196.28 30.1248 197.877 32.3149 198.909C33.9677 199.687 35.6788 199.827 37.4856 199.478C44.1108 198.196 49.569 194.906 54.1135 189.978C57.6416 186.153 60.1363 181.667 62.2991 177.006C66.0736 168.876 68.3185 160.267 69.6292 151.436C70.4881 145.626 71.1383 139.78 71.6208 133.926C72.0691 128.467 72.182 122.973 71.7372 117.496C71.3128 112.266 70.9193 107.033 70.3136 101.824C69.5333 95.103 67.7847 88.6153 65.0162 82.4224C64.5782 81.4422 64.1778 80.4415 63.6679 79.2248C64.39 78.9815 64.9854 78.7827 65.5295 78.5977C65.9915 79.828 66.3474 80.9247 66.8025 81.9769C69.9714 89.3213 71.8159 97.0119 72.5482 104.946C73.106 110.964 73.4858 117.006 73.7048 123.048C73.8965 128.353 73.5988 133.666 72.9896 138.943C72.4558 143.587 71.9219 148.231 71.2615 152.858C70.4881 158.29 69.0132 163.564 67.4185 168.801C67.2748 169.271 67.1584 169.747 66.9805 170.402C75.8402 169.816 84.5049 169.24 93.3373 168.654C93.1662 168.16 93.0909 167.903 92.9882 167.653C89.176 158.239 86.7258 148.474 85.7129 138.368C85.1756 132.977 84.8266 127.569 84.327 122.174C83.7794 116.256 83.4509 110.323 83.7144 104.387C83.8821 100.576 84.3235 96.7686 84.7718 92.9747C85.381 87.8202 86.1886 82.6966 87.4582 77.6552C87.6909 76.7264 87.9407 75.8011 88.2589 74.5741C87.6053 74.9031 87.181 75.0951 86.7737 75.3213C82.7425 77.5798 78.4273 78.6422 73.8075 78.3886C71.6208 78.2686 69.5197 77.7786 67.5759 76.7367C66.5185 76.1712 65.5466 75.4892 64.917 74.3137C65.5808 73.6968 66.19 73.875 66.7272 74.3651C70.5771 77.8951 75.1079 77.8814 79.7585 76.7401C84.019 75.6948 87.6737 73.57 90.2985 69.9166C90.5962 69.5053 90.9418 69.0941 91.6605 69.4951C91.2019 70.5472 91.397 71.7844 90.4696 72.7132C90.1376 73.0456 90.0384 73.6317 89.8913 74.1183C88.4642 78.8204 87.4718 83.6185 86.9004 88.4988C86.3597 93.1426 85.7232 97.783 85.3912 102.441C85.1483 105.847 85.203 109.288 85.3467 112.705C85.535 117.208 85.949 121.698 86.2467 126.194C87.1023 139.105 88.8749 151.833 93.4091 164.051C96.2221 171.629 100.116 178.531 105.725 184.402C108.169 186.958 110.55 189.573 113.038 192.082C114.725 193.782 116.573 195.297 118.835 196.225C119.338 196.431 119.749 196.87 120.259 197.24C119.184 198.223 118.438 197.74 117.822 197.315C115.851 195.958 113.77 194.704 112.029 193.086C106.54 187.99 101.513 182.458 97.3582 176.2C96.0099 174.168 94.9901 171.916 93.6898 169.524C84.8266 170.073 75.8026 170.628 66.6656 171.193C66.1523 172.42 65.6732 173.623 65.1531 174.812C63.0177 179.686 60.6804 184.46 57.2686 188.579C52.9979 193.737 47.8785 197.713 41.2602 199.433C40.8803 199.533 40.5176 199.694 40.1035 199.841C45.945 264.162 51.7865 328.446 57.6451 392.949C65.8238 393.021 73.9375 392.617 82.13 392.658C82.2019 392.127 82.2908 391.746 82.3011 391.366C82.4756 383.144 82.6296 374.926 82.8076 366.704C83.0334 356.258 83.273 345.812 83.5091 335.366C83.7315 325.547 83.9574 315.728 84.1832 305.912C84.4091 296.207 84.6384 286.504 84.8642 276.798C85.0969 266.808 85.3228 256.818 85.5521 246.831C85.6684 241.752 85.7711 236.67 85.9011 231.591C85.9353 230.285 86.038 228.979 86.1133 227.574C86.5616 227.536 86.9209 227.505 87.3863 227.464C87.4718 227.995 87.5814 228.431 87.6019 228.869C87.8414 234.113 88.0502 239.36 88.3034 244.604C88.6046 250.817 88.957 257.027 89.2547 263.244C89.5319 269.002 89.7509 274.763 90.0247 280.52C90.3259 286.85 90.6715 293.174 90.9726 299.504C91.2464 305.261 91.4723 311.019 91.7426 316.777C92.0437 323.161 92.3825 329.546 92.6802 335.931C92.9574 341.918 93.1833 347.906 93.4571 353.893C93.6418 357.999 93.8882 362.101 94.073 366.207C94.3365 372.078 94.5624 377.955 94.8259 383.826C95.0141 388.045 95.2536 392.264 95.4418 396.483C95.7054 402.47 95.9415 408.457 96.1947 414.444C96.2187 415.007 96.2768 415.569 96.335 416.388C97.7175 416.055 98.9597 415.754 100.301 415.431V401.606C100.797 401.555 101.266 401.507 101.892 401.445C103.357 406.154 104.791 410.76 106.259 415.486C112.867 415.048 119.39 414.612 125.95 414.174C124.813 412.645 122.223 411.01 120.509 410.74C114.872 409.852 110.345 407.148 107.111 402.422C106.348 401.308 105.701 400.05 105.287 398.769C104.411 396.061 103.723 393.295 102.964 390.55C102.888 390.283 102.84 390.012 102.775 389.717C101.027 389.378 99.3088 390.502 97.3924 389.621C98.84 388.682 100.301 388.922 101.643 388.672C103.042 388.412 104.469 388.312 105.883 388.134C107.354 387.949 108.822 387.754 110.294 387.568C111.707 387.39 113.124 387.233 114.54 387.054C115.954 386.876 117.367 386.688 118.78 386.503C120.187 386.318 121.593 386.136 123.106 385.937C123.137 385.358 123.195 384.861 123.188 384.364C123.024 372.372 122.856 360.384 122.678 348.392C122.582 342.055 122.459 335.719 122.356 329.382C122.12 314.823 121.891 300.261 121.658 285.702C121.552 279.023 121.446 272.343 121.344 265.66C121.22 257.723 121.097 249.785 120.974 241.852C120.882 236.029 120.786 230.203 120.704 224.38C120.693 223.77 120.755 223.163 120.782 222.652C121.515 222.282 121.847 222.522 121.963 223.06C122.048 223.448 122.042 223.855 122.048 224.253C122.213 232.989 122.363 241.725 122.541 250.457C122.757 261.246 123.003 272.035 123.219 282.827C123.356 289.736 123.452 296.645 123.578 303.551C123.797 315.426 124.033 327.301 124.249 339.177C124.348 344.602 124.403 350.027 124.488 355.449C124.639 365.213 124.8 374.977 124.954 384.741C124.964 385.303 124.954 385.862 124.954 386.561C120.875 387.493 116.755 387.544 112.604 388.374C114.01 399.087 118.945 407.477 128.01 413.262V414.959C127.134 415.037 126.179 415.144 125.221 415.202C119.188 415.575 113.155 415.932 107.121 416.305C105.404 416.41 104.305 415.645 103.826 414.009C103.378 412.488 102.905 410.973 102.235 409.485V415.994C99.8221 416.573 97.4677 417.138 94.8977 417.755C94.7472 415.846 94.5726 414.15 94.4905 412.45C94.292 408.231 94.1517 404.009 93.9635 399.79C93.7787 395.684 93.5426 391.582 93.3578 387.476C93.0909 381.547 92.8616 375.614 92.5878 369.685C92.2901 363.242 91.9445 356.803 91.6502 350.36C91.3764 344.372 91.1471 338.385 90.8768 332.398C90.692 328.292 90.4525 324.19 90.2711 320.084C90.0042 313.983 89.7817 307.88 89.5148 301.779C89.33 297.502 89.0836 293.228 88.8988 288.951C88.6354 282.851 88.4095 276.747 88.1563 270.643C87.9304 265.225 87.708 259.807 87.4513 254.392C87.3829 252.969 87.1912 251.557 86.8627 250.138C86.8627 252.911 86.9072 255.687 86.8559 258.46C86.6163 270.962 86.3494 283.464 86.0928 295.967C85.9216 304.36 85.7677 312.75 85.576 321.143C85.381 329.649 85.1448 338.152 84.9395 346.658C84.8745 349.342 84.8676 352.025 84.8129 354.709C84.7034 360.302 84.5802 365.898 84.4604 371.492C84.2072 383.367 83.9471 395.239 83.6939 407.114C83.6323 410.082 83.5946 413.05 83.5399 416.021C83.5296 416.521 83.4783 417.022 83.4372 417.704C82.9171 417.704 82.3387 417.885 82.0821 417.673C81.011 416.778 79.7996 417.244 78.6497 417.162C77.9893 417.114 77.3254 417.097 76.617 417.066C76.0866 414.314 75.5836 411.716 75.0839 409.115C75.0223 409.115 74.9607 409.112 74.8991 409.108C74.6425 411.641 74.3858 414.17 74.1189 416.819C73.4448 416.909 72.8972 417.025 72.3463 417.046C64.9957 417.292 57.6416 417.505 50.291 417.772C46.9887 417.892 43.6933 418.122 40.3944 418.283C40.0796 418.297 39.7613 418.17 39.4602 418.112C39.402 417.049 40.0796 417.001 40.7777 416.878C42.3997 416.59 44.0252 416.292 45.6233 415.901C49.0146 415.072 51.7283 413.228 53.85 410.424C57.0086 406.247 59.6949 401.846 60.9166 396.681C61.1219 395.811 61.2656 394.93 61.4744 393.864H56.2694C55.7698 392.699 54.9177 383.977 54.5789 378.99C54.2401 373.983 53.6994 368.99 53.2443 363.989C52.796 359.047 52.3374 354.105 51.8926 349.163C51.4477 344.221 51.0131 339.276 50.5716 334.331C50.1268 329.33 49.6819 324.33 49.2302 319.333C48.7819 314.391 48.3233 309.449 47.8785 304.504C47.4302 299.562 46.9921 294.62 46.5507 289.674C46.1093 284.732 45.6746 279.787 45.2366 274.845C44.7952 269.845 44.3469 264.844 43.9089 259.844C43.4777 254.899 43.0602 249.953 42.6222 245.011C42.1841 240.069 41.7222 235.127 41.2773 230.185C40.829 225.185 40.3841 220.185 39.9564 215.185C39.5355 210.249 39.1351 205.311 38.7176 200.256C38.105 200.311 37.6122 200.355 37.1229 200.403C31.9761 200.921 27.678 198.463 25.5152 193.748C24.4578 191.441 23.8795 189.018 23.8145 186.468C23.6468 180.083 24.6871 173.856 26.1825 167.68C28.3008 158.914 30.8194 150.263 33.8582 141.774C34.683 139.475 35.6617 137.226 36.5685 134.958C36.678 134.725 36.7841 134.495 36.8936 134.262L36.9655 134.211L36.9141 134.283C36.8115 134.519 36.7088 134.755 36.6062 134.992C35.4221 136.514 34.2381 138.028 33.0575 139.554C29.6593 143.947 25.984 148.074 21.4738 151.36C18.8285 153.286 16.0087 154.87 12.6756 155.277C8.29878 155.816 4.83222 154.061 2.74133 150.164C1.18086 147.251 0.520404 144.081 0.226106 140.815C-0.62599 131.352 1.04056 122.161 3.37783 113.075C6.55352 100.751 11.3684 89.0677 17.6376 77.9945C18.3597 76.7196 19.3042 75.568 20.1289 74.3514C20.3821 73.9744 20.5943 73.57 20.7962 73.1621C22.7297 69.2997 24.03 65.2316 24.4475 60.9339C24.8103 57.1915 24.9711 53.4284 25.1799 49.6688C25.2243 48.8806 25.1388 48.0717 25.0019 47.2903C24.8205 46.2348 25.0806 45.3608 25.8506 44.6514C26.7301 43.8392 27.6232 43.0441 28.5335 42.2661C32.4004 38.9794 36.2708 35.6996 40.148 32.4232C40.8564 31.8235 41.5819 31.2169 42.6803 31.8954C42.718 32.0839 42.8651 32.3787 42.8035 32.6186C42.2663 34.7811 41.6708 36.9128 40.2849 38.7361C38.7586 40.741 37.116 42.6157 35.0696 44.1202C34.3921 44.6206 33.7727 45.0353 32.8453 44.6069C33.0575 43.7432 33.7248 43.2874 34.3613 42.8487C36.678 41.2482 38.2282 39.0034 39.5834 36.6112C39.9393 35.9806 40.0796 35.2267 40.3225 34.5309L40.391 34.4795L40.3396 34.5515C38.3377 36.1486 36.3119 37.7216 34.3373 39.353C32.1814 41.1317 30.094 42.9892 27.938 44.7645C26.8943 45.6247 26.5555 46.646 26.8156 47.9381C26.9183 48.4384 26.9867 48.9594 26.973 49.4666C26.8225 54.4874 26.6548 59.5048 25.6008 64.44C24.8548 67.9254 23.5544 71.2018 21.7852 74.2931C21.6141 74.5913 21.4361 74.8826 21.2855 75.191C21.2411 75.2801 21.2787 75.4069 21.2787 75.6914C23.7665 76.4625 26.3057 77.2473 28.8517 78.0322C31.1137 76.7812 32.7666 74.9854 34.0875 72.8948C35.0902 71.308 35.9457 69.6287 36.8389 67.9768C37.4993 66.7533 37.6054 66.6813 39.029 67.0069C36.9894 71.3903 34.7925 75.5989 30.2959 78.4674C32.9856 79.2968 35.4016 80.0439 37.9716 80.839C39.799 76.0718 43.9944 75.3624 48.2104 74.7352C51.7386 72.487 52.8952 68.652 54.5515 65.1939C56.5055 61.1087 57.6485 56.7391 58.3021 52.2632C58.5861 50.3063 58.6717 48.3219 58.8702 46.132C57.0291 46.2725 55.3591 46.4027 53.6549 46.5329C53.4051 46.0497 53.2032 45.6624 53.0082 45.2923C48.2891 44.5657 45.4625 40.6142 46.1606 35.7544C46.4344 33.8421 47.0606 32.1045 48.5663 30.785C49.5587 29.9145 50.7154 29.5238 52.0089 29.4896C52.2005 29.4827 52.399 29.6301 52.9534 29.8426C50.907 30.3292 49.5519 31.2545 48.7408 32.8379C47.8237 34.6303 47.6492 36.5427 47.964 38.5099C48.4773 41.7452 50.356 43.918 53.145 44.271C53.1827 43.7295 53.2545 43.1949 53.2511 42.6636C53.2101 38.551 53.1519 34.4418 53.1142 30.3292C53.1074 29.6575 53.1793 28.9858 53.2135 28.2969C55.1401 27.56 57.0496 28.2421 58.966 27.9062C59.1474 25.8053 59.3253 23.7319 59.5032 21.6516C57.474 21.23 55.5063 20.949 53.6207 20.3938C51.6804 19.8215 50.1473 18.4883 48.556 17.0832C49.1104 16.5896 49.5861 16.6376 50.096 16.9975C50.8899 17.5527 51.6735 18.125 52.4846 18.6597C54.6576 20.0991 57.0736 20.5446 59.7223 20.4452C59.8728 19.9723 60.0268 19.5576 60.1398 19.1292C61.5154 13.8479 63.7911 9.04983 67.7539 5.19425C70.4813 2.54161 73.698 0.773188 77.4862 0.204276C83.338 -0.67651 88.2589 1.3421 92.4818 5.27308C95.678 8.24787 97.7757 11.9561 99.2848 16.0207C99.5175 16.6513 99.7605 17.2785 100.003 17.9194C102.888 17.4122 105.044 15.1262 108.025 15.2736C106.981 16.3292 105.67 16.9358 104.404 17.5835C103.145 18.2278 101.824 18.7625 100.541 19.3382C100.931 22.289 101.318 25.2056 101.718 28.2078C104.507 29.068 106.653 30.7268 107.833 33.4651C110.622 33.9038 113.069 34.9902 115.023 37.0362C116.724 38.8183 116.946 41.2345 115.632 43.3285C114.636 44.9153 113.196 46.0291 111.618 46.9785C108.747 48.7023 105.609 49.7031 102.348 50.3611C101.735 50.4845 101.119 50.5941 100.448 50.721C100 52.1398 100.192 53.5724 100.418 54.9501C101.16 59.4671 102.437 63.8471 104.117 68.1002C104.945 70.1942 106.392 71.8667 107.973 73.4706C108.781 74.2897 109.654 74.6427 110.691 74.8963C113.733 75.6434 116.796 76.3254 119.793 77.2234C126.196 79.1426 130.405 83.4814 132.797 89.6263C134.662 94.4175 135.826 99.4212 136.958 104.428C138.389 110.748 138.977 117.136 139.049 123.61C139.097 128.055 139.539 132.497 139.71 136.945C139.925 142.477 140.11 148.012 140.192 153.547C140.274 159.027 140.107 164.514 140.237 169.994C140.374 175.81 140.736 181.622 140.99 187.438C141.14 190.858 141.215 194.286 141.417 197.703C141.657 201.743 141.989 205.78 142.297 209.818C142.444 211.751 142.687 213.677 142.773 215.613C142.851 217.443 142.246 218.122 140.422 218.272C136.216 218.615 132.007 218.896 127.801 219.201C126.381 219.304 124.961 219.431 123.537 219.506C122.695 219.551 121.847 219.513 120.83 219.513C120.779 219.009 120.693 218.523 120.686 218.036C120.615 212.556 120.532 207.072 120.495 201.592C120.426 191.026 120.396 180.464 120.331 169.898C120.255 157.735 120.149 145.572 120.081 133.409C120.04 125.927 120.047 118.446 120.04 110.967C120.04 110.416 120.105 109.86 120.142 109.257H121.278C121.32 109.775 121.391 110.265 121.395 110.751C121.456 116.519 121.504 122.287 121.559 128.055C121.679 140.561 121.809 153.063 121.915 165.569C122.042 180.587 122.148 195.605 122.271 210.623C122.288 212.851 122.336 215.075 122.38 217.303C122.387 217.686 122.452 218.07 122.51 218.646C128.29 218.41 133.944 217.806 139.614 217.443C140.042 217.416 140.452 217.165 140.986 216.98C140.925 215.678 140.945 214.431 140.798 213.2C140.014 206.737 139.631 200.252 139.443 193.744C139.292 188.497 138.82 183.264 138.567 178.02C138.403 174.6 138.317 171.173 138.293 167.749C138.245 160.781 138.341 153.814 138.221 146.847C138.139 142.001 137.783 137.158 137.568 132.312C137.4 128.549 137.143 124.786 137.133 121.023C137.112 114.47 135.993 108.085 134.495 101.745C133.444 97.3032 132.39 92.8479 130.504 88.6736C128.112 83.3786 124.245 79.5744 118.592 77.8882C115.375 76.9286 112.083 76.2158 108.832 75.3692C104.25 74.1766 99.7742 72.6892 95.4761 70.6809C92.9369 69.4916 90.8426 67.8534 89.4327 65.3482C88.543 63.7717 87.3555 62.3597 86.7977 60.5193C87.0578 60.2896 87.2939 60.084 87.5608 59.8475C87.7353 60.0497 87.8585 60.1628 87.9441 60.2931C89.3916 62.5447 90.7913 64.8272 92.2935 67.0412C93.2894 68.5115 94.8738 69.3066 96.4274 69.9886C99.0282 71.1332 101.708 72.0997 104.367 73.1142C104.671 73.2307 105.041 73.1827 105.376 73.2101L105.407 73.2855L105.356 73.2375C103.1 70.7151 101.721 67.7506 100.958 64.4777C100.284 61.5988 99.5381 58.7337 99.0008 55.8274C98.7133 54.2784 98.7989 52.6642 98.7065 50.9197C98.378 51.1596 98.0495 51.2899 97.8886 51.5298C94.7574 56.2387 90.1103 58.3601 84.7513 59.2478C81.8015 59.7344 78.8551 59.6145 75.9189 59.0456C75.3645 58.9393 74.7931 58.9222 74.2284 58.8639C73.9341 58.7131 73.6501 58.5212 73.3387 58.4184C67.6888 56.5746 63.158 53.4044 60.7318 47.7153C59.9447 48.8771 59.9892 48.884 59.8934 49.9053C59.7291 51.66 59.5717 53.4181 59.2877 55.1557C58.3124 61.143 55.8177 66.5717 52.9876 71.8598C52.6215 72.5452 51.9986 73.097 51.4888 73.7036C51.2663 73.971 51.0268 74.2246 50.6914 74.5981C55.2599 75.03 59.3595 73.8956 63.3839 72.4287C64.2154 72.1237 64.9751 71.5342 65.6767 70.9688C69.482 67.8946 71.8877 63.9396 72.9999 59.0421C73.3832 58.977 73.8178 58.9051 74.2558 58.8297L74.2147 58.8399ZM94.0285 44.4218C94.227 38.6436 94.1415 33.0196 94.7609 27.2824C96.2255 27.1693 97.5635 27.0665 99.0966 26.95C99.0077 24.5099 98.7578 22.1965 97.9947 20.1985C95.8114 20.1985 93.878 20.291 91.9548 20.1813C87.3521 19.914 83.6289 17.9331 81.0007 14.0981C80.1349 12.8334 79.4779 11.4249 78.7284 10.078C78.4615 9.59818 78.2014 9.11152 77.8182 8.41238C74.8376 16.2161 69.4136 20.5823 61.2896 21.3363C61.1458 21.9943 60.9884 22.4878 60.9337 22.9882C60.7044 25.0102 60.3622 26.9911 60.7318 29.0851C61.0261 30.737 60.6907 32.4986 60.6736 34.2088C60.6531 36.3131 60.6668 38.4174 60.6668 40.4668C60.9747 40.7033 61.2245 40.9021 61.4401 41.0666C61.3751 41.5292 61.3067 41.8651 61.2896 42.2044C61.269 42.602 61.2656 43.0064 61.3067 43.4005C61.7105 47.1293 63.2641 50.3028 66.0394 52.815C71.0322 57.332 76.9353 59.0764 83.5775 58.3087C87.7867 57.8221 91.4894 56.201 94.4152 53.0343C94.8943 52.5168 95.2742 51.9068 95.7259 51.3036C92.3551 50.9986 89.1966 50.7107 86.0825 50.4262C84.7239 51.6669 84.06 52.0713 82.6878 52.3968C80.087 53.0172 77.476 52.9863 74.9026 52.2872C74.0402 52.0507 73.1778 51.6497 72.4489 51.1356C71.1041 50.1897 71.1143 48.8052 72.5003 47.9381C73.349 47.4103 74.355 47.0744 75.3372 46.8242C77.3596 46.3067 79.4129 46.5124 81.4558 46.7557C83.4578 46.9922 85.2099 47.6536 86.3289 49.6688C89.7065 49.4666 93.108 50.601 96.6498 49.895C97.0536 48.6338 97.4301 47.4514 97.8476 46.1388C98.4088 46.1696 98.9392 46.1971 99.6784 46.2382C99.3978 47.5268 99.1651 48.6029 98.8913 49.8607C103.436 49.1856 107.652 48.1266 111.221 45.3471C112.145 44.6274 112.901 43.6472 113.582 42.6808C114.27 41.7075 114.335 40.5285 114.051 39.3804C113.558 37.3755 110.715 35.1787 108.5 35.0313C108.459 41.2105 106.875 43.1503 101.718 43.5753C101.14 43.918 100.732 44.367 100.305 44.3841C98.3198 44.4595 96.3316 44.4184 94.0251 44.4184L94.0285 44.4218ZM63.6611 393.895C62.5626 397.103 61.8029 399.985 60.588 402.662C59.3835 405.314 57.7238 407.758 56.0914 410.589C57.0838 410.102 57.8606 409.79 58.569 409.362C60.9097 407.957 62.7029 405.948 64.2907 403.783C66.3885 400.924 67.99 397.771 69.4341 394.334C70.0056 394.299 70.625 394.262 71.3813 394.217C71.0904 394.8 70.8953 395.125 70.7619 395.472C69.6428 398.361 68.1098 401.037 66.3474 403.563C63.6816 407.391 60.4785 410.548 55.6739 411.566C55.1093 411.686 54.5378 412.1 54.1237 412.529C52.9534 413.735 51.6154 414.677 50.0994 415.373C49.2507 415.764 48.3884 416.124 47.5328 416.497C47.5465 416.552 47.5602 416.607 47.5705 416.662C55.6979 416.425 63.8219 416.189 72.0451 415.949C72.7432 410.89 72.9315 405.948 73.7083 400.904C74.3927 400.976 74.9128 401.034 75.4193 401.089C76.4425 406.233 77.4281 411.189 78.4102 416.148H81.6098C82.0205 408.632 82.0034 401.195 82.1984 393.58C75.8368 393.703 69.6565 393.6 63.6576 393.892L63.6611 393.895ZM61.6352 20.3801C70.1151 19.0606 74.3995 13.6217 76.6136 6.13673C77.6129 5.63979 78.3623 5.86941 78.9304 6.67822C79.2897 7.18887 79.6113 7.73037 79.9125 8.27872C80.7064 9.72842 81.3977 11.2398 82.2703 12.6415C84.238 15.798 86.8045 18.3032 90.6338 18.8687C92.581 19.1566 94.6 18.9647 96.5848 18.9441C96.9339 18.9407 97.2829 18.6939 97.7415 18.5157C97.2111 17.0729 96.7901 15.7089 96.2187 14.4168C94.3673 10.2322 91.876 6.50687 88.0912 3.81653C83.8923 0.83145 79.341 -0.0253454 74.5261 2.10636C72.9349 2.80893 71.4121 3.8131 70.0877 4.9475C65.598 8.80308 63.1443 13.8993 61.642 19.5199C61.5873 19.7255 61.6352 19.9551 61.6352 20.3835V20.3801ZM104.233 389.371C104.322 389.985 104.315 390.389 104.442 390.749C105.469 393.7 106.321 396.733 107.604 399.567C109.839 404.502 113.812 407.587 118.924 409.232C119.287 409.348 119.68 409.372 120.344 409.489C119.865 408.882 119.578 408.491 119.263 408.125C117.429 406.01 115.824 403.745 114.52 401.26C112.744 397.881 112.118 394.176 111.423 390.488C111.3 389.841 111.183 389.193 111.053 388.487C108.713 388.789 106.581 389.066 104.237 389.368L104.233 389.371ZM58.504 45.0455C58.6067 39.6717 58.7059 34.4658 58.8051 29.14H54.8082C54.5686 32.0771 55.0101 44.2127 55.4104 45.4259C56.3447 45.3129 57.2926 45.1963 58.5006 45.049L58.504 45.0455ZM96.1571 43.3731H99.3396V28.8829C98.4088 28.1392 98.0426 28.0776 96.1571 28.3963V43.3731ZM101.691 29.4896C101.242 32.1525 101.188 40.9878 101.595 42.3038C103.935 42.3244 105.787 40.6827 106.235 38.1946C106.861 34.7194 105.048 31.1723 101.687 29.4896H101.691ZM102.098 408.409L102.057 408.402L102.064 408.522L102.098 408.409Z" fill="#2B2C30"/>
<path d="M90.7057 127.123C89.4464 127.195 89.1213 127.007 89.2274 126.009C89.3472 124.882 89.5902 123.761 89.8434 122.651C91.2738 116.372 92.6118 110.059 94.9902 104.051C95.9312 101.67 97.0571 99.3562 98.183 97.0531C98.6518 96.0901 99.3396 95.2333 99.9659 94.2737C96.8278 92.8343 93.1799 92.8206 89.7373 91.1138C92.5263 89.5305 95.2879 88.6531 97.9469 87.0732C95.0244 83.1353 93.3065 78.8479 92.1533 74.348C92.67 73.8751 93.0807 73.9059 93.3784 74.3892C93.5803 74.7147 93.6966 75.0952 93.8232 75.4653C94.9696 78.8719 96.1503 82.2614 98.3233 85.1951C98.6621 85.6509 98.9358 86.1547 99.1993 86.6585C99.2986 86.847 99.278 87.0937 99.3328 87.457C97.2727 88.9547 94.7506 89.6093 92.2936 91.1344C93.748 91.4908 94.9388 91.7753 96.1263 92.0803C97.3377 92.3956 98.5799 92.6423 99.7434 93.0879C100.862 93.5163 102.224 93.1427 103.408 94.2154C101.208 94.7398 100.483 96.4602 99.6716 98.0573C97.6286 102.084 96.0236 106.289 94.8362 110.645C93.5153 115.481 92.2251 120.324 90.9487 125.173C90.7844 125.8 90.7845 126.469 90.7092 127.123H90.7057Z" fill="#2B2C30"/>
<path d="M66.0565 131.75C65.1052 132.339 64.6877 132.014 64.4071 131.311C63.7535 129.67 63.1169 128.021 62.436 126.39C59.8454 120.169 57.9222 113.723 55.9477 107.294C55.2633 105.069 54.3599 102.91 53.5146 100.617C56.3344 98.1053 59.1645 95.5829 62.0835 92.9817C58.8702 92.0666 55.4823 92.9817 52.4264 91.2646C52.683 90.8739 52.8028 90.6238 52.9842 90.4284C55.5679 87.6181 58.1652 84.8181 60.7489 82.0078C61.4812 81.2127 61.4641 81.1956 62.785 81.1887C60.1124 84.6673 57.4021 87.954 54.0964 91.1001C57.645 92.0358 61.0979 91.5251 64.7082 92.4196C61.5086 95.3156 58.5348 98.0059 55.4036 100.84C57.6382 105.717 58.8941 111.046 60.6154 116.218C62.3401 121.4 64.2189 126.527 66.0565 131.75Z" fill="#2B2C30"/>
<path d="M130.231 254.402V252.006C129.361 252.229 128.622 252.418 127.729 252.647C127.647 252.068 127.486 251.674 127.561 251.331C128.304 247.88 129.084 244.439 129.865 240.943C130.344 240.847 130.706 240.775 131.117 240.693C131.168 240.94 131.254 241.104 131.223 241.242C130.662 243.685 130.084 246.125 129.522 248.569C129.427 248.987 129.396 249.422 129.293 250.118C130.569 248.583 131.582 247.294 131.757 245.457C131.866 244.292 132.363 243.161 132.698 241.958C133.15 241.917 133.516 241.882 133.906 241.848C133.177 245.375 132.472 248.788 131.764 252.202C133.016 250.632 133.862 248.87 134.625 247.068C136.233 243.257 137.01 239.223 137.722 235.175C138.317 231.807 138.868 228.431 139.457 225.062C139.535 224.616 139.696 224.184 139.823 223.746C139.997 223.143 140.408 222.947 141.229 223.101C141.25 223.585 141.373 224.136 141.281 224.647C140.162 230.758 139.131 236.892 137.817 242.962C137.092 246.31 135.528 249.402 133.786 252.366C133.499 252.856 133.15 253.316 132.784 253.751C132.144 254.515 131.363 254.875 130.227 254.398L130.231 254.402Z" fill="#2B2C30"/>
<path d="M39.378 46.4645C39.4669 47.4344 39.597 48.2192 39.597 49.004C39.597 49.991 39.8399 50.8375 40.3259 51.7286C41.7563 54.3333 43.6932 56.4547 46.0613 58.1991C46.7765 58.7269 47.5636 59.1553 48.3267 59.6317C46.9339 61.4755 44.8225 61.6057 43.1559 60.0361C44.162 59.3644 45.3837 61.054 46.3008 59.6557C43.8061 58.2026 41.7186 56.2251 39.816 53.9083C40.0179 57.2121 40.2164 60.5159 40.4148 63.8026C39.4395 64.4126 38.6833 64.1898 37.9441 63.6449C36.9791 62.9321 36.4795 61.9142 36.1167 60.8209C35.2304 58.1614 34.4741 55.4779 34.7274 52.6231C34.7616 52.2324 34.7 51.8349 34.676 51.2728C33.6665 51.1528 32.681 51.0363 31.6509 50.9164C32.527 49.9876 34.6178 49.9465 36.6437 50.8341C36.103 54.6451 36.8114 58.3328 38.6114 61.8457C38.3479 56.9448 38.081 52.0439 37.8106 47.0402C36.6574 47.0916 35.5966 47.143 34.5323 47.1842C33.5536 47.2219 32.5441 47.4309 31.6646 46.7146C34.1696 46.5399 36.6403 45.779 39.3848 46.461L39.378 46.4645Z" fill="#2B2C30"/>
<path d="M84.0533 208.988C85.7746 208.68 87.4309 208.382 89.2857 208.049C89.1693 208.491 89.1556 208.903 89.0324 208.94C86.8697 209.588 84.6727 210.044 82.308 210.195C82.2396 209.533 82.1609 209.098 82.1575 208.659C82.089 203.697 82.0548 198.734 81.9693 193.772C81.8906 189.323 81.7605 184.878 81.6544 180.43C81.6407 179.816 81.6544 179.203 81.6544 178.699C82.3662 178.298 82.7495 178.415 82.8864 178.983C82.9925 179.422 83.0164 179.885 83.0301 180.341C83.1944 186.157 83.3381 191.969 83.5092 197.785C83.6084 201.205 83.7487 204.626 83.8788 208.043C83.889 208.313 83.978 208.581 84.0567 208.988H84.0533Z" fill="#2B2C30"/>
<path d="M129.478 239.014C129.912 237.797 130.282 236.91 130.546 235.995C131.244 233.585 131.887 231.162 132.571 228.753C132.897 227.601 132.917 227.608 134.324 227.608C134.289 227.93 134.3 228.256 134.217 228.551C133.424 231.344 132.63 234.14 131.791 236.923C131.579 237.622 131.295 238.342 130.874 238.928C129.875 240.32 127.914 240.104 127.329 238.496C127.007 237.616 126.874 236.591 126.959 235.655C127.233 232.591 127.647 229.541 128.006 226.488C128.195 224.904 128.362 223.317 128.574 221.737C128.725 220.617 128.872 220.521 130.008 220.504C129.673 223.65 129.341 226.803 128.995 229.956C128.804 231.711 128.598 233.465 128.386 235.217C128.232 236.485 128.297 237.691 129.474 239.014H129.478Z" fill="#2B2C30"/>
<path d="M33.1054 174.449C33.41 172.037 33.6735 169.97 33.9541 167.763C38.5431 167.149 43.0397 166.608 47.6013 166.56C45.7397 167.369 43.7344 167.454 41.7804 167.766C39.8195 168.078 37.8484 168.322 35.8054 168.606C35.5796 170.182 35.3708 171.636 35.1415 173.24C35.713 173.24 36.1476 173.281 36.5754 173.233C40.0317 172.856 43.488 172.451 46.9443 172.078C47.6424 172.002 48.3952 171.752 49.1652 172.448C48.7546 172.647 48.4842 172.873 48.1933 172.9C43.2792 173.414 38.3822 174.131 33.1054 174.453V174.449Z" fill="#2B2C30"/>
<path d="M66.7991 25.1405C67.9318 23.4029 69.6291 23.2796 71.2204 23.0499C72.8767 22.81 74.5809 22.5873 76.2337 23.7834C75.2653 25.6306 73.544 25.7231 71.987 25.9939C70.2417 26.2955 68.4348 26.6005 66.7991 25.1405Z" fill="#2B2C30"/>
<path d="M83.3858 23.8178C84.1079 23.6019 84.7204 23.2729 85.3364 23.2626C87.2459 23.2318 89.022 23.8315 90.6475 24.8083C90.9726 25.0036 91.3182 25.5383 91.2737 25.8673C91.2326 26.1791 90.7159 26.6281 90.3703 26.6658C88.1083 26.9263 85.9763 26.5047 84.0908 25.1544C83.9128 25.0276 83.7657 24.8391 83.6459 24.6506C83.5604 24.517 83.5432 24.3353 83.3893 23.8212L83.3858 23.8178Z" fill="#2B2C30"/>
<path d="M69.2664 34.5689H68.0174C67.86 32.8484 68.3493 31.4398 69.6052 30.4288C70.6045 29.6303 71.8501 29.5686 72.9657 30.2438C74.6254 31.2513 74.8102 32.941 74.9437 34.8293C74.3551 34.8739 73.8828 34.9082 73.349 34.9493C73.0033 33.3351 73.1402 31.6146 71.5147 30.6722C69.7353 31.3919 69.6976 33.0438 69.2664 34.5689Z" fill="#2B2C30"/>
<path d="M77.6505 43.9114C79.2931 43.3425 80.4463 42.6331 80.3505 40.9778C80.2924 39.9976 79.8509 39.2505 79.0536 39.0654C77.671 39.0037 77.4863 41.0497 75.9566 40.3437C76.0079 39.4184 76.5794 38.9797 77.233 38.6301C78.1262 38.1503 79.0844 38.0852 80.0391 38.3937C81.7057 38.9283 82.4483 40.6487 81.8118 42.4172C81.2368 44.0142 79.6422 44.7065 77.6505 43.9148V43.9114Z" fill="#2B2C30"/>
<path d="M90.2094 33.9486C89.7201 33.9109 89.3505 33.8835 88.9809 33.856C88.5463 32.444 88.3341 30.9532 86.6436 30.4631C84.9429 30.799 84.693 32.2864 84.2482 33.6881C83.906 33.7052 83.5946 33.7224 83.2079 33.7429C82.9101 32.7765 83.2352 31.9985 83.663 31.2719C84.4569 29.9216 86.2638 29.3596 87.855 29.9148C89.5045 30.494 90.3703 31.8854 90.2128 33.9486H90.2094Z" fill="#2B2C30"/>
</svg>
